<svg width="254" height="33" viewBox="0 0 254 33" fill="none" xmlns="http://www.w3.org/2000/svg">
<path d="M32.13 15.71C32.13 21.89 30.39 26.195 26.91 28.625C23.7 30.875 19.29 32 13.68 32H0.945V31.145H3.915V1.355H0.945V0.499998H14.85C20.61 0.499998 24.93 1.685 27.81 4.055C30.69 6.395 32.13 10.28 32.13 15.71ZM12.69 31.145H14.4C17.43 31.145 19.59 30.08 20.88 27.95C22.2 25.79 22.86 22.19 22.86 17.15V14.54C22.86 7.79 21.57 3.725 18.99 2.345C17.76 1.685 16.02 1.355 13.77 1.355H12.69V31.145ZM46.2547 32.45C42.3847 32.45 39.4747 31.46 37.5247 29.48C35.6047 27.47 34.6447 24.695 34.6447 21.155C34.6447 17.585 35.7247 14.855 37.8847 12.965C40.0747 11.075 42.8497 10.13 46.2097 10.13C53.0197 10.13 56.2897 13.55 56.0197 20.39H43.3297V22.145C43.3297 25.085 43.7047 27.305 44.4547 28.805C45.2047 30.305 46.5097 31.055 48.3697 31.055C51.8497 31.055 54.1297 29.195 55.2097 25.475L56.0197 25.61C55.4497 27.77 54.4147 29.45 52.9147 30.65C51.4447 31.85 49.2247 32.45 46.2547 32.45ZM43.3747 19.49H48.0097V17.285C48.0097 14.855 47.8597 13.205 47.5597 12.335C47.2897 11.435 46.7197 10.985 45.8497 10.985C45.0097 10.985 44.3797 11.465 43.9597 12.425C43.5697 13.355 43.3747 14.975 43.3747 17.285V19.49ZM56.0303 11.39V10.58H69.4853V11.39H66.6503L72.0503 26.33L76.9103 11.39H73.8953V10.58H79.9703V11.39H77.9903L71.3303 32H66.2003L57.8753 11.39H56.0303ZM97.9805 0.904998C93.3305 0.904998 91.0055 5.39 91.0055 14.36V17.915C91.0055 22.175 91.6205 25.52 92.8505 27.95C94.0805 30.35 95.8955 31.55 98.2955 31.55C101.595 31.55 104.625 28.34 107.385 21.92H108.195L107.88 31.955H107.385C107.205 31.625 107.04 31.4 106.89 31.28C106.74 31.13 106.515 31.055 106.215 31.055C105.945 31.055 104.865 31.295 102.975 31.775C101.085 32.225 99.1655 32.45 97.2155 32.45C92.3255 32.45 88.5305 31.13 85.8305 28.49C83.1605 25.85 81.8255 21.89 81.8255 16.61C81.8255 11.3 83.2205 7.205 86.0105 4.325C88.8305 1.445 92.6105 0.00499886 97.3505 0.00499886C99.1805 0.00499886 100.965 0.244998 102.705 0.724998C104.475 1.175 105.51 1.4 105.81 1.4C106.11 1.4 106.335 1.34 106.485 1.22C106.635 1.07 106.8 0.829999 106.98 0.499998H107.475L107.835 10.265H107.025C105.675 7.235 104.28 4.925 102.84 3.335C101.43 1.715 99.8105 0.904998 97.9805 0.904998ZM125.595 23.135V19.31C125.595 16.4 125.43 14.285 125.1 12.965C124.8 11.615 124.08 10.94 122.94 10.94C122.28 10.94 121.74 11.135 121.32 11.525C120.93 11.885 120.645 12.5 120.465 13.37C120.195 14.72 120.06 16.775 120.06 19.535V23.045C120.06 26.315 120.15 28.28 120.33 28.94C120.54 29.6 120.75 30.14 120.96 30.56C121.29 31.28 121.935 31.64 122.895 31.64C124.065 31.64 124.83 30.965 125.19 29.615C125.46 28.655 125.595 26.495 125.595 23.135ZM122.805 32.45C119.055 32.45 116.22 31.49 114.3 29.57C112.38 27.65 111.42 24.905 111.42 21.335C111.42 17.735 112.44 14.975 114.48 13.055C116.55 11.105 119.445 10.13 123.165 10.13C126.885 10.13 129.66 11.03 131.49 12.83C133.32 14.6 134.235 17.315 134.235 20.975C134.235 28.625 130.425 32.45 122.805 32.45ZM135.584 10.58H146.429V14.72C146.909 13.34 147.644 12.23 148.634 11.39C149.624 10.55 151.124 10.13 153.134 10.13C157.784 10.13 160.109 12.635 160.109 17.645V31.19H162.629V32H149.894V31.19H151.739V16.565C151.739 14.765 151.619 13.61 151.379 13.1C151.139 12.56 150.704 12.29 150.074 12.29C149.114 12.29 148.259 12.92 147.509 14.18C146.789 15.44 146.429 16.97 146.429 18.77V31.19H148.364V32H135.584V31.19H138.059V11.39H135.584V10.58ZM163.313 10.58H174.158V14.72C174.638 13.34 175.373 12.23 176.363 11.39C177.353 10.55 178.853 10.13 180.863 10.13C185.513 10.13 187.838 12.635 187.838 17.645V31.19H190.358V32H177.623V31.19H179.468V16.565C179.468 14.765 179.348 13.61 179.108 13.1C178.868 12.56 178.433 12.29 177.803 12.29C176.843 12.29 175.988 12.92 175.238 14.18C174.518 15.44 174.158 16.97 174.158 18.77V31.19H176.093V32H163.313V31.19H165.788V11.39H163.313V10.58ZM202.788 32.45C198.918 32.45 196.008 31.46 194.058 29.48C192.138 27.47 191.178 24.695 191.178 21.155C191.178 17.585 192.258 14.855 194.418 12.965C196.608 11.075 199.383 10.13 202.743 10.13C209.553 10.13 212.823 13.55 212.553 20.39H199.863V22.145C199.863 25.085 200.238 27.305 200.988 28.805C201.738 30.305 203.043 31.055 204.903 31.055C208.383 31.055 210.663 29.195 211.743 25.475L212.553 25.61C211.983 27.77 210.948 29.45 209.448 30.65C207.978 31.85 205.758 32.45 202.788 32.45ZM199.908 19.49H204.543V17.285C204.543 14.855 204.393 13.205 204.093 12.335C203.823 11.435 203.253 10.985 202.383 10.985C201.543 10.985 200.913 11.465 200.493 12.425C200.103 13.355 199.908 14.975 199.908 17.285V19.49ZM226.756 10.94C225.436 10.94 224.491 11.66 223.921 13.1C223.351 14.54 223.066 16.925 223.066 20.255V22.595C223.066 25.565 223.396 27.695 224.056 28.985C224.716 30.275 225.931 30.92 227.701 30.92C229.471 30.92 230.881 30.32 231.931 29.12C232.981 27.92 233.656 26.555 233.956 25.025L234.766 25.115C234.196 27.695 233.146 29.555 231.616 30.695C230.056 31.865 227.911 32.45 225.181 32.45C221.701 32.45 219.031 31.52 217.171 29.66C215.311 27.77 214.381 25.025 214.381 21.425C214.381 17.795 215.431 15.005 217.531 13.055C219.661 11.105 222.616 10.13 226.396 10.13C229.066 10.13 231.106 10.655 232.516 11.705C233.926 12.725 234.631 14.015 234.631 15.575C234.631 17.135 234.286 18.275 233.596 18.995C232.936 19.715 232.006 20.075 230.806 20.075C229.636 20.075 228.691 19.76 227.971 19.13C227.251 18.5 226.891 17.57 226.891 16.34C226.891 15.8 226.966 15.26 227.116 14.72H228.601C228.811 14.12 228.916 13.58 228.916 13.1C228.916 11.66 228.196 10.94 226.756 10.94ZM238.159 25.565V11.39H235.684V10.58H238.159V4.775L246.529 2.705V10.58H252.379V11.39H246.529V26.555C246.529 27.965 246.664 29 246.934 29.66C247.234 30.32 247.834 30.65 248.734 30.65C249.634 30.65 250.414 30.2 251.074 29.3C251.764 28.4 252.214 27.17 252.424 25.61L253.189 25.7C252.949 27.77 252.289 29.42 251.209 30.65C250.129 31.85 248.344 32.45 245.854 32.45C243.364 32.45 241.459 31.955 240.139 30.965C238.819 29.975 238.159 28.175 238.159 25.565Z" fill="#13293D"/>
</svg>
