<svg width="138" height="30" viewBox="0 0 138 30" fill="none" xmlns="http://www.w3.org/2000/svg">
<path d="M26.64 15.56C26.64 19.2933 25.4 22.5067 22.92 25.2C20.4667 27.8933 17.6267 29.1867 14.4 29.08C9.54667 28.92 5 28.8933 0.76 29V27.76H4.52V2.68H0.76V1.44C3.13333 1.57333 5.24 1.62667 7.08 1.6C8.92 1.57333 11.4 1.57333 14.52 1.6C18.28 1.65333 21.24 2.93333 23.4 5.44C25.56 7.92 26.64 11.2933 26.64 15.56ZM20.52 23.92C21.8267 21.84 22.4533 18.9733 22.4 15.32C22.3733 11.64 21.8533 8.81333 20.84 6.84C19.5867 4.30667 17.48 2.92 14.52 2.68C12.12 2.54666 9.97333 2.6 8.08 2.84V27.76C9.89333 27.92 11.2533 28 12.16 28C13.0933 28 13.8533 27.9733 14.44 27.92C17.1867 27.52 19.2133 26.1867 20.52 23.92ZM46.3963 19.72H33.6763C33.6763 22.0667 34.2629 23.8933 35.4363 25.2C36.6363 26.6133 38.3963 27.32 40.7163 27.32C41.9429 27.32 43.5296 26.7067 45.4763 25.48L45.9963 25.88C44.1029 28.2 41.7563 29.36 38.9563 29.36C36.1563 29.36 33.9563 28.52 32.3563 26.84C30.8629 25.2133 30.1163 23.0533 30.1163 20.36C30.1163 17.6667 30.9163 15.3467 32.5163 13.4C34.1429 11.4267 36.3163 10.44 39.0363 10.44C41.2763 10.44 43.0763 11.2 44.4363 12.72C45.7963 14.2133 46.4763 16.0533 46.4763 18.24C46.4763 18.5333 46.4496 19.0267 46.3963 19.72ZM42.9563 18.28C42.9563 16.36 42.5963 14.7867 41.8763 13.56C41.1829 12.3333 40.1296 11.72 38.7163 11.72C37.3029 11.72 36.1163 12.2933 35.1563 13.44C34.1963 14.5867 33.7163 16.1733 33.7163 18.2C38.7029 18.3333 41.7829 18.36 42.9563 18.28ZM68.83 10.72V11.8H67.79C67.07 11.8 66.4433 12.3733 65.91 13.52L59.23 29H57.31L50.63 12.72C50.39 12.1067 49.9367 11.8 49.27 11.8H47.99V10.72H57.27V11.8H55.39C54.6967 11.8 54.35 12.0533 54.35 12.56C54.35 12.6667 54.3767 12.8 54.43 12.96L59.23 25.44L63.91 13.52C64.0967 13.0667 64.19 12.7067 64.19 12.44C64.19 12.0133 63.9633 11.8 63.51 11.8H61.51V10.72H68.83ZM92.3609 23.88L92.9209 24.52C91.5076 26.4933 90.0009 27.84 88.4009 28.56C86.8009 29.28 84.8409 29.64 82.5209 29.64C79.1076 29.64 76.2009 28.24 73.8009 25.44C71.4009 22.5867 70.2143 19.0933 70.2409 14.96C70.2943 10.8 71.4943 7.41333 73.8409 4.8C76.1876 2.16 79.0809 0.839998 82.5209 0.839998C84.7076 0.839998 86.2943 0.946665 87.2809 1.16C88.2676 1.34667 89.4543 1.70667 90.8409 2.24V8.52H89.6409C89.4543 6.17333 88.8276 4.48 87.7609 3.44C86.6943 2.37333 84.9876 1.89333 82.6409 2C77.4676 2.24 74.8809 6.65333 74.8809 15.24C74.8809 19.0267 75.5476 22.1333 76.8809 24.56C78.2676 26.96 80.0809 28.1867 82.3209 28.24C84.5609 28.2667 86.4009 27.9467 87.8409 27.28C89.2809 26.5867 90.7876 25.4533 92.3609 23.88ZM110.977 12.92C112.684 14.6 113.537 16.8267 113.537 19.6C113.537 22.3467 112.59 24.6533 110.697 26.52C108.804 28.3867 106.324 29.3467 103.257 29.4C100.83 29.4267 98.7769 28.5867 97.0969 26.88C95.4969 25.1467 94.6969 22.8667 94.6969 20.04C94.6969 17.1867 95.5902 14.8533 97.3769 13.04C99.1635 11.2267 101.59 10.32 104.657 10.32C107.19 10.32 109.297 11.1867 110.977 12.92ZM104.857 28.12C106.537 28.12 107.79 27.4133 108.617 26C109.47 24.5867 109.897 22.76 109.897 20.52C109.897 18.2533 109.324 16.2 108.177 14.36C107.004 12.5467 105.55 11.64 103.817 11.64C100.164 11.64 98.3369 13.9733 98.3369 18.64C98.3369 21.12 98.7902 23.2133 99.6969 24.92C100.844 27.0533 102.564 28.12 104.857 28.12ZM137.622 27.92V29H127.862V27.92H130.222C130.729 27.92 131.022 27.6133 131.102 27V17.52C131.102 15.9733 130.702 14.7733 129.902 13.92C129.102 13.04 128.076 12.6 126.822 12.6C125.569 12.6 124.409 13.0133 123.342 13.84C122.329 14.6933 121.822 15.4933 121.822 16.24V27C121.902 27.6133 122.209 27.92 122.742 27.92H125.062V29H115.302V27.92H117.622C118.156 27.92 118.462 27.6133 118.542 27V13.16C118.516 12.2533 118.062 11.8 117.182 11.8H115.302V10.72H121.862V11.8C121.836 12.12 121.822 12.4933 121.822 12.92V13.72C122.036 13.2133 122.596 12.5733 123.502 11.8C124.862 10.7333 126.342 10.2 127.942 10.2C132.236 10.2 134.382 12.48 134.382 17.04V27C134.462 27.6133 134.769 27.92 135.302 27.92H137.622Z" fill="#13293D"/>
</svg>
