<svg width="344" height="77" viewBox="0 0 344 77" fill="none" xmlns="http://www.w3.org/2000/svg">
<path d="M43.554 36.918C43.554 45.2953 41.1953 51.131 36.478 54.425C32.1267 57.475 26.1487 59 18.544 59H1.281V57.841H5.307V17.459H1.281V16.3H20.13C27.938 16.3 33.794 17.9063 37.698 21.119C41.602 24.291 43.554 29.5573 43.554 36.918ZM17.202 57.841H19.52C23.6273 57.841 26.5553 56.3973 28.304 53.51C30.0933 50.582 30.988 45.702 30.988 38.87V35.332C30.988 26.182 29.2393 20.6717 25.742 18.801C24.0747 17.9063 21.716 17.459 18.666 17.459H17.202V57.841ZM62.7009 59.61C57.4549 59.61 53.5102 58.268 50.8669 55.584C48.2642 52.8593 46.9629 49.0977 46.9629 44.299C46.9629 39.4597 48.4269 35.759 51.3549 33.197C54.3235 30.635 58.0852 29.354 62.6399 29.354C71.8712 29.354 76.3039 33.99 75.9379 43.262H58.7359V45.641C58.7359 49.6263 59.2442 52.6357 60.2609 54.669C61.2775 56.7023 63.0465 57.719 65.5679 57.719C70.2852 57.719 73.3759 55.1977 74.8399 50.155L75.9379 50.338C75.1652 53.266 73.7622 55.5433 71.7289 57.17C69.7362 58.7967 66.7269 59.61 62.7009 59.61ZM58.7969 42.042H65.0799V39.053C65.0799 35.759 64.8765 33.5223 64.4699 32.343C64.1039 31.123 63.3312 30.513 62.1519 30.513C61.0132 30.513 60.1592 31.1637 59.5899 32.465C59.0612 33.7257 58.7969 35.9217 58.7969 39.053V42.042ZM75.9521 31.062V29.964H94.1911V31.062H90.3481L97.6681 51.314L104.256 31.062H100.169V29.964H108.404V31.062H105.72L96.6921 59H89.7381L78.4531 31.062H75.9521ZM132.818 16.849C126.515 16.849 123.363 22.9287 123.363 35.088V39.907C123.363 45.6817 124.197 50.216 125.864 53.51C127.531 56.7633 129.992 58.39 133.245 58.39C137.718 58.39 141.826 54.0387 145.567 45.336H146.665L146.238 58.939H145.567C145.323 58.4917 145.099 58.1867 144.896 58.024C144.693 57.8207 144.388 57.719 143.981 57.719C143.615 57.719 142.151 58.0443 139.589 58.695C137.027 59.305 134.424 59.61 131.781 59.61C125.152 59.61 120.008 57.8207 116.348 54.242C112.729 50.6633 110.919 45.2953 110.919 38.138C110.919 30.94 112.81 25.389 116.592 21.485C120.415 17.581 125.539 15.629 131.964 15.629C134.445 15.629 136.864 15.9543 139.223 16.605C141.622 17.215 143.025 17.52 143.432 17.52C143.839 17.52 144.144 17.4387 144.347 17.276C144.55 17.0727 144.774 16.7473 145.018 16.3H145.689L146.177 29.537H145.079C143.249 25.4297 141.358 22.2983 139.406 20.143C137.495 17.947 135.299 16.849 132.818 16.849ZM170.251 46.983V41.798C170.251 37.8533 170.028 34.9863 169.58 33.197C169.174 31.367 168.198 30.452 166.652 30.452C165.758 30.452 165.026 30.7163 164.456 31.245C163.928 31.733 163.541 32.5667 163.297 33.746C162.931 35.576 162.748 38.3617 162.748 42.103V46.861C162.748 51.2937 162.87 53.9573 163.114 54.852C163.399 55.7467 163.684 56.4787 163.968 57.048C164.416 58.024 165.29 58.512 166.591 58.512C168.177 58.512 169.214 57.597 169.702 55.767C170.068 54.4657 170.251 51.5377 170.251 46.983ZM166.469 59.61C161.386 59.61 157.543 58.3087 154.94 55.706C152.338 53.1033 151.036 49.3823 151.036 44.543C151.036 39.663 152.419 35.9217 155.184 33.319C157.99 30.6757 161.915 29.354 166.957 29.354C172 29.354 175.762 30.574 178.242 33.014C180.723 35.4133 181.963 39.0937 181.963 44.055C181.963 54.425 176.799 59.61 166.469 59.61ZM183.792 29.964H198.493V35.576C199.143 33.7053 200.14 32.2007 201.482 31.062C202.824 29.9233 204.857 29.354 207.582 29.354C213.885 29.354 217.037 32.7497 217.037 39.541V57.902H220.453V59H203.19V57.902H205.691V38.077C205.691 35.637 205.528 34.0713 205.203 33.38C204.877 32.648 204.288 32.282 203.434 32.282C202.132 32.282 200.973 33.136 199.957 34.844C198.981 36.552 198.493 38.626 198.493 41.066V57.902H201.116V59H183.792V57.902H187.147V31.062H183.792V29.964ZM221.38 29.964H236.081V35.576C236.732 33.7053 237.728 32.2007 239.07 31.062C240.412 29.9233 242.446 29.354 245.17 29.354C251.474 29.354 254.625 32.7497 254.625 39.541V57.902H258.041V59H240.778V57.902H243.279V38.077C243.279 35.637 243.117 34.0713 242.791 33.38C242.466 32.648 241.876 32.282 241.022 32.282C239.721 32.282 238.562 33.136 237.545 34.844C236.569 36.552 236.081 38.626 236.081 41.066V57.902H238.704V59H221.38V57.902H224.735V31.062H221.38V29.964ZM274.89 59.61C269.644 59.61 265.7 58.268 263.056 55.584C260.454 52.8593 259.152 49.0977 259.152 44.299C259.152 39.4597 260.616 35.759 263.544 33.197C266.513 30.635 270.275 29.354 274.829 29.354C284.061 29.354 288.493 33.99 288.127 43.262H270.925V45.641C270.925 49.6263 271.434 52.6357 272.45 54.669C273.467 56.7023 275.236 57.719 277.757 57.719C282.475 57.719 285.565 55.1977 287.029 50.155L288.127 50.338C287.355 53.266 285.952 55.5433 283.918 57.17C281.926 58.7967 278.916 59.61 274.89 59.61ZM270.986 42.042H277.269V39.053C277.269 35.759 277.066 33.5223 276.659 32.343C276.293 31.123 275.521 30.513 274.341 30.513C273.203 30.513 272.349 31.1637 271.779 32.465C271.251 33.7257 270.986 35.9217 270.986 39.053V42.042ZM307.38 30.452C305.591 30.452 304.31 31.428 303.537 33.38C302.765 35.332 302.378 38.565 302.378 43.079V46.251C302.378 50.277 302.826 53.1643 303.72 54.913C304.615 56.6617 306.262 57.536 308.661 57.536C311.061 57.536 312.972 56.7227 314.395 55.096C315.819 53.4693 316.734 51.619 317.14 49.545L318.238 49.667C317.466 53.1643 316.042 55.6857 313.968 57.231C311.854 58.817 308.946 59.61 305.245 59.61C300.528 59.61 296.909 58.3493 294.387 55.828C291.866 53.266 290.605 49.545 290.605 44.665C290.605 39.7443 292.029 35.9623 294.875 33.319C297.763 30.6757 301.768 29.354 306.892 29.354C310.512 29.354 313.277 30.0657 315.188 31.489C317.1 32.8717 318.055 34.6203 318.055 36.735C318.055 38.8497 317.588 40.395 316.652 41.371C315.758 42.347 314.497 42.835 312.87 42.835C311.284 42.835 310.003 42.408 309.027 41.554C308.051 40.7 307.563 39.4393 307.563 37.772C307.563 37.04 307.665 36.308 307.868 35.576H309.881C310.166 34.7627 310.308 34.0307 310.308 33.38C310.308 31.428 309.332 30.452 307.38 30.452ZM322.838 50.277V31.062H319.483V29.964H322.838V22.095L334.184 19.289V29.964H342.114V31.062H334.184V51.619C334.184 53.5303 334.367 54.9333 334.733 55.828C335.139 56.7227 335.953 57.17 337.173 57.17C338.393 57.17 339.45 56.56 340.345 55.34C341.28 54.12 341.89 52.4527 342.175 50.338L343.212 50.46C342.886 53.266 341.992 55.5027 340.528 57.17C339.064 58.7967 336.644 59.61 333.269 59.61C329.893 59.61 327.311 58.939 325.522 57.597C323.732 56.255 322.838 53.815 322.838 50.277Z" fill="#13293D"/>
</svg>
