<svg width="205" height="205" viewBox="0 0 205 205" fill="none" xmlns="http://www.w3.org/2000/svg">
<path d="M136.667 190.052V168.002L156.603 171.363C158.35 171.657 160.14 171.586 161.858 171.154C163.576 170.722 165.186 169.938 166.586 168.852C167.986 167.766 169.146 166.401 169.991 164.844C170.837 163.287 171.351 161.572 171.5 159.806L173.951 130.713C181.852 128.941 187.532 126.084 191.218 123.7C194.524 121.565 194.908 117.251 192.704 113.989L174.998 87.7784C172.896 48.38 140.284 17.0833 100.365 17.0833V190.052" stroke="black" stroke-width="1.5" stroke-linecap="round" stroke-linejoin="round"/>
<path d="M12.8125 102.5C12.8125 105.898 14.1624 109.157 16.5652 111.56C18.968 113.963 22.2269 115.312 25.625 115.312C29.0231 115.312 32.282 113.963 34.6848 111.56C37.0876 109.157 38.4375 105.898 38.4375 102.5C38.4375 99.1019 37.0876 95.843 34.6848 93.4402C32.282 91.0374 29.0231 89.6875 25.625 89.6875C22.2269 89.6875 18.968 91.0374 16.5652 93.4402C14.1624 95.843 12.8125 99.1019 12.8125 102.5ZM34.1667 38.4375C34.1667 40.1201 34.4981 41.7861 35.142 43.3406C35.7858 44.8951 36.7296 46.3076 37.9194 47.4973C39.1091 48.6871 40.5216 49.6308 42.076 50.2747C43.6305 50.9186 45.2966 51.25 46.9792 51.25C48.6617 51.25 50.3278 50.9186 51.8823 50.2747C53.4368 49.6308 54.8492 48.6871 56.039 47.4973C57.2287 46.3076 58.1725 44.8951 58.8164 43.3406C59.4603 41.7861 59.7917 40.1201 59.7917 38.4375C59.7917 36.7549 59.4603 35.0889 58.8164 33.5344C58.1725 31.9799 57.2287 30.5674 56.039 29.3777C54.8492 28.1879 53.4368 27.2442 51.8823 26.6003C50.3278 25.9564 48.6617 25.625 46.9792 25.625C45.2966 25.625 43.6305 25.9564 42.076 26.6003C40.5216 27.2442 39.1091 28.1879 37.9194 29.3777C36.7296 30.5674 35.7858 31.9799 35.142 33.5344C34.4981 35.0889 34.1667 36.7549 34.1667 38.4375ZM29.8958 170.833C29.8958 174.231 31.2457 177.49 33.6485 179.893C36.0513 182.296 39.3102 183.646 42.7083 183.646C46.1064 183.646 49.3653 182.296 51.7681 179.893C54.171 177.49 55.5208 174.231 55.5208 170.833C55.5208 167.435 54.171 164.176 51.7681 161.774C49.3653 159.371 46.1064 158.021 42.7083 158.021C39.3102 158.021 36.0513 159.371 33.6485 161.774C31.2457 164.176 29.8958 167.435 29.8958 170.833Z" stroke="black" stroke-width="1.5"/>
<path d="M38.4375 102.5H100.365M100.365 68.3333H76.875L57.6562 49.1146M100.365 140.938H72.6042L53.3854 160.156" stroke="black" stroke-width="1.5" stroke-linecap="round" stroke-linejoin="round"/>
</svg>
